# xmcd
#
# Track frame offsets: 
#        150
#        18732
#        31322
#        48177
#        57749
#        71263
#        91817
#        108968
#        121096
#        133827
#        147251
#        161363
#
# Disc length: 2378 seconds
#
# Revision: 0
# Processed by: cddbd v1.5.1PL2 Copyright (c) Steve Scherf et al.
# Submitted via: ExactAudioCopy v0.95b3
#
DISCID=9e09480c
DTITLE=Rhythm Doctors - Blues to Heal the Soul
DYEAR=2000
DGENRE=Blues
TTITLE0=Black Cat Bone
TTITLE1=Climbing On Top Of The Hill
TTITLE2=Prisoner's Plea
TTITLE3=Lollipop
TTITLE4=Key To The Highway
TTITLE5=Reverend Doctor's Song
TTITLE6=Double Trouble
TTITLE7=That's Alright Mama
TTITLE8=Good Morning Lilttle Schoolgirl
TTITLE9=Crazy Mixed Up World
TTITLE10=Next Time You See Me
TTITLE11=People Get Ready
EXTD=
EXTT0=
EXTT1=
EXTT2=
EXTT3=
EXTT4=
EXTT5=
EXTT6=
EXTT7=
EXTT8=
EXTT9=
EXTT10=
EXTT11=
PLAYORDER=
